<?xml version="1.0" encoding="UTF-8"?>
<svg width="424px" height="124px" viewBox="0 0 424 124" version="1.1" xmlns="http://www.w3.org/2000/svg" xmlns:xlink="http://www.w3.org/1999/xlink">
    <title>Final</title>
    <g id="Page-1" stroke="none" stroke-width="1" fill="none" fill-rule="evenodd">
        <g id="Final" fill="#C86400" fill-rule="nonzero">
            <path d="M198.430833,96 L198.430833,7.72 C198.430833,4.95857625 196.192257,2.72 193.430833,2.72 L187.830833,2.72 C185.06941,2.72 182.830833,4.95857625 182.830833,7.72 L182.830833,96 C182.830833,98.7614237 185.06941,101 187.830833,101 L193.430833,101 C196.192257,101 198.430833,98.7614237 198.430833,96 Z M19.3927856,99.28 L19.3927856,61.19 L29.6733467,61.19 C33.9378758,61.19 38.0310621,60.8433333 41.9529058,60.15 C45.8747495,59.4566667 49.3206413,58.135 52.2905812,56.185 C55.260521,54.235 57.6212425,51.4833333 59.3727455,47.93 C61.1242485,44.3766667 62,39.6966667 62,33.89 C62,28.7766667 61.1813627,24.5083333 59.5440882,21.085 C57.9068136,17.6616667 55.7174349,14.9316667 52.9759519,12.895 C50.2344689,10.8583333 47.0551102,9.40666667 43.4378758,8.54 C39.8206413,7.67333333 36.0701403,7.24 32.1863727,7.24 L10,7.24 C7.23857625,7.24 5,9.47857625 5,12.24 L5,99.28 L5,99.28 L19.3927856,99.28 Z M21.38,47.15 L21.38,21.28 L30.7160996,21.28 C32.4450069,21.28 34.2430705,21.41 36.1102905,21.67 C37.9775104,21.93 39.6718396,22.515 41.193278,23.425 C42.7147165,24.335 43.9595297,25.635 44.9277178,27.325 C45.8959059,29.015 46.38,31.29 46.38,34.15 C46.38,37.27 45.8440387,39.6966667 44.7721162,41.43 C43.7001936,43.1633333 42.3170678,44.4633333 40.6227386,45.33 C38.9284094,46.1966667 37.0784786,46.7166667 35.0729461,46.89 C33.0674136,47.0633333 31.1310373,47.15 29.2638174,47.15 L21.38,47.15 Z M94.548333,100.84 C99.228333,100.84 103.648333,100.06 107.808333,98.5 C111.968333,96.94 115.565,94.73 118.598333,91.87 C121.631666,89.01 124.036666,85.565 125.813333,81.535 C127.59,77.505 128.478333,73.02 128.478333,68.08 C128.478333,63.14 127.59,58.655 125.813333,54.625 C124.036666,50.595 121.631666,47.15 118.598333,44.29 C115.565,41.43 111.968333,39.22 107.808333,37.66 C103.648333,36.1 99.228333,35.32 94.548333,35.32 C89.868333,35.32 85.448333,36.1 81.288333,37.66 C77.128333,39.22 73.5316663,41.43 70.498333,44.29 C67.4649997,47.15 65.0599997,50.595 63.283333,54.625 C61.5066663,58.655 60.618333,63.14 60.618333,68.08 C60.618333,73.02 61.5066663,77.505 63.283333,81.535 C65.0599997,85.565 67.4649997,89.01 70.498333,91.87 C73.5316663,94.73 77.128333,96.94 81.288333,98.5 C85.448333,100.06 89.868333,100.84 94.548333,100.84 Z M94.548333,86.8 C91.688333,86.8 89.1316663,86.28 86.878333,85.24 C84.6249997,84.2 82.6966663,82.8133333 81.093333,81.08 C79.4899997,79.3466667 78.2766663,77.3533333 77.453333,75.1 C76.6299997,72.8466667 76.218333,70.5066667 76.218333,68.08 C76.218333,65.6533333 76.6299997,63.3133333 77.453333,61.06 C78.2766663,58.8066667 79.4899997,56.8133333 81.093333,55.08 C82.6966663,53.3466667 84.6249997,51.96 86.878333,50.92 C89.1316663,49.88 91.688333,49.36 94.548333,49.36 C97.408333,49.36 99.9649997,49.88 102.218333,50.92 C104.471666,51.96 106.4,53.3466667 108.003333,55.08 C109.606666,56.8133333 110.82,58.8066667 111.643333,61.06 C112.466666,63.3133333 112.878333,65.6533333 112.878333,68.08 C112.878333,70.5066667 112.466666,72.8466667 111.643333,75.1 C110.82,77.3533333 109.606666,79.3466667 108.003333,81.08 C106.4,82.8133333 104.471666,84.2 102.218333,85.24 C99.9649997,86.28 97.408333,86.8 94.548333,86.8 Z M161.776666,100.84 C163.596666,100.84 165.698333,100.688333 168.081666,100.385 C168.759579,100.29872 169.515061,100.150649 170.348111,99.9407852 C172.569669,99.3811265 174.126666,97.3832417 174.126666,95.0922729 L174.126666,86.2094091 L174.126666,86.2094091 C174.126666,86.0277316 173.979387,85.8804529 173.79771,85.8804529 C173.748353,85.8804529 173.699629,85.8915596 173.655155,85.912965 C172.350753,86.5402304 171.207924,86.944242 170.226666,87.125 C168.579999,87.4283333 167.063333,87.58 165.676666,87.58 C162.209999,87.58 159.891666,86.67 158.721666,84.85 C157.551666,83.03 156.966666,80.56 156.966666,77.44 L156.966666,50.14 L169.126666,50.14 C171.88809,50.14 174.126666,47.9014237 174.126666,45.14 L174.126666,41.88 C174.126666,39.1185763 171.88809,36.88 169.126666,36.88 L156.966666,36.88 L156.966666,36.88 L156.966666,23.81 C156.966666,21.0485763 154.72809,18.81 151.966666,18.81 L146.366666,18.81 C143.605242,18.81 141.366666,21.0485763 141.366666,23.81 L141.366666,36.88 L141.366666,36.88 L133.496666,36.88 C130.735242,36.88 128.496666,39.1185763 128.496666,41.88 L128.496666,45.14 C128.496666,47.9014237 130.735242,50.14 133.496666,50.14 L141.366666,50.14 L141.366666,50.14 L141.366666,78.74 C141.366666,82.38 141.648333,85.5866667 142.211666,88.36 C142.774999,91.1333333 143.814999,93.4516667 145.331666,95.315 C146.848333,97.1783333 148.928333,98.565 151.571666,99.475 C154.214999,100.385 157.616666,100.84 161.776666,100.84 Z M231.503332,100.84 C236.703332,100.84 240.819999,99.6916667 243.853332,97.395 C246.886665,95.0983333 249.139999,92.39 250.613332,89.27 L250.873332,89.27 L250.873332,94.28 C250.873332,97.0414237 253.111908,99.28 255.873332,99.28 L260.693332,99.28 C263.454756,99.28 265.693332,97.0414237 265.693332,94.28 L265.693332,41.88 C265.693332,39.1185763 263.454756,36.88 260.693332,36.88 L255.093332,36.88 C252.331908,36.88 250.093332,39.1185763 250.093332,41.88 L250.093332,70.94 L250.093332,70.94 C250.093332,73.02 249.833332,75.0133333 249.313332,76.92 C248.793332,78.8266667 247.948332,80.5166667 246.778332,81.99 C245.608332,83.4633333 244.134999,84.6333333 242.358332,85.5 C240.581665,86.3666667 238.393332,86.8 235.793332,86.8 C233.019999,86.8 230.874999,86.1716667 229.358332,84.915 C227.841665,83.6583333 226.714999,82.0983333 225.978332,80.235 C225.241665,78.3716667 224.786665,76.3783333 224.613332,74.255 C224.439999,72.1316667 224.353332,70.2033333 224.353332,68.47 L224.353332,41.88 C224.353332,39.1185763 222.114756,36.88 219.353332,36.88 L213.753332,36.88 C210.991908,36.88 208.753332,39.1185763 208.753332,41.88 L208.753332,76.27 L208.753332,76.27 C208.753332,79.4766667 209.143332,82.5533333 209.923332,85.5 C210.703332,88.4466667 212.003332,91.0683333 213.823332,93.365 C215.643332,95.6616667 218.004999,97.4816667 220.908332,98.825 C223.811665,100.168333 227.343332,100.84 231.503332,100.84 Z M307.921665,100.84 C309.308332,100.84 310.954998,100.688333 312.861665,100.385 C314.768332,100.081667 316.761665,99.5833333 318.841665,98.89 C320.921665,98.1966667 322.922266,97.2528631 324.958933,96.1261964 C325.168818,96.0100894 325.389691,95.8801004 325.621551,95.7362295 C327.967966,94.2802683 328.689812,91.1978313 327.233844,88.8514207 C327.063314,88.5765984 326.866521,88.3189707 326.646231,88.0821588 L323.385703,84.5770914 C321.622625,82.6817966 318.704496,82.4455064 316.659456,84.032453 C315.929847,84.5986274 315.270584,85.0228097 314.681665,85.305 C312.601665,86.3016667 310.348332,86.8 307.921665,86.8 C305.061665,86.8 302.504998,86.28 300.251665,85.24 C297.998332,84.2 296.069998,82.8133333 294.466665,81.08 C292.863332,79.3466667 291.649998,77.3533333 290.826665,75.1 C290.003332,72.8466667 289.591665,70.5066667 289.591665,68.08 C289.591665,65.6533333 290.003332,63.3133333 290.826665,61.06 C291.649998,58.8066667 292.863332,56.8133333 294.466665,55.08 C296.069998,53.3466667 297.998332,51.96 300.251665,50.92 C302.504998,49.88 305.061665,49.36 307.921665,49.36 C310.001665,49.36 312.038332,49.9233333 314.031665,51.05 C314.681447,51.4172682 315.469369,51.9675718 316.395431,52.7009107 C318.385332,54.2766987 321.240193,54.111472 323.035021,52.3166443 L326.61453,48.7371349 C328.567151,46.7845134 328.567151,43.6186886 326.61453,41.6660671 C326.438406,41.489943 326.249367,41.3272256 326.048993,41.1792739 C323.677762,39.4284093 321.643653,38.2336514 319.946665,37.595 C315.916665,36.0783333 311.908332,35.32 307.921665,35.32 C303.241665,35.32 298.821665,36.1 294.661665,37.66 C290.501665,39.22 286.904998,41.43 283.871665,44.29 C280.838332,47.15 278.433332,50.595 276.656665,54.625 C274.879998,58.655 273.991665,63.14 273.991665,68.08 C273.991665,73.02 274.879998,77.505 276.656665,81.535 C278.433332,85.565 280.838332,89.01 283.871665,91.87 C286.904998,94.73 290.501665,96.94 294.661665,98.5 C298.821665,100.06 303.241665,100.84 307.921665,100.84 Z M353.109998,94.28 L353.109998,67.43 L353.109998,67.43 L353.369998,67.43 L376.698627,97.3541582 C377.646064,98.5694566 379.10095,99.28 380.641919,99.28 L388.534998,99.28 C391.2032,99.28 393.366206,97.1169946 393.366206,94.4487921 C393.366206,93.3161064 392.968224,92.2194299 392.241792,91.3503652 L370.970107,65.9020484 C370.644979,65.5130826 370.662353,64.9423619 371.010539,64.5738933 L397.179998,36.88 L397.179998,36.88 L377.159998,36.88 L353.109998,62.75 L353.109998,6 C353.109998,3.23857625 350.871422,1 348.109998,1 L342.509998,1 C339.748574,1 337.509998,3.23857625 337.509998,6 L337.509998,94.28 C337.509998,97.0414237 339.748574,99.28 342.509998,99.28 L348.109998,99.28 C350.871422,99.28 353.109998,97.0414237 353.109998,94.28 Z" id="Potluck"></path>
            <g id="fork" transform="translate(12.500000, 106.000000) scale(1, -1) translate(-12.500000, -106.000000) translate(0.000000, 88.000000)">
                <path d="M22.4,0 C21.1,0 20,1.1 20,2.4 L20,23.2 C20,23.8 19.5,24.3 18.9,24.3 L16.2,24.3 C15.6,24.3 15.1,23.8 15.1,23.2 L15.1,2.4 C15,1.1 13.9,0 12.6,0 C11.2,0 10.1,1.1 10.1,2.5 L10.1,23.3 C10.1,23.9 9.6,24.4 9,24.4 L6.3,24.4 C5.7,24.4 5.2,23.9 5.2,23.3 L5.2,2.4 C5.1,1.1 4,0 2.7,0 C1.3,0 0.2,1.1 0.2,2.4 L0.2,27.7 C0.2,32 3.5,35.5 7.6,35.9 L17.5,36 C21.7,35.6 24.9,32 24.9,27.8 L24.9,2.4 C24.9,1.1 23.8,0 22.4,0 Z" id="Path"></path>
            </g>
            <g id="spoon" transform="translate(396.498891, 27.421153) rotate(42.000000) translate(-396.498891, -27.421153) translate(380.998891, 4.921153)">
                <path d="M31,26.3747368 C31,13.8694737 22.926045,6.25277607e-13 15.5498392,6.25277607e-13 C8.17363344,6.25277607e-13 -6.36646291e-12,13.8694737 -6.36646291e-12,26.3747368 C-6.36646291e-12,36.3789474 3.58842444,42.4042105 9.76848875,44.5642105 L21.1318328,44.5642105 C27.4115756,42.5178947 31,36.3789474 31,26.3747368 Z" id="Path"></path>
            </g>
        </g>
    </g>
</svg>